<svg xmlns="http://www.w3.org/2000/svg" xmlns:xlink="http://www.w3.org/1999/xlink" width="40" zoomAndPan="magnify" viewBox="0 0 30 30.000001" height="40" preserveAspectRatio="xMidYMid meet" version="1.0"><defs><clipPath id="8ea11b556d"><path d="M 0.484375 0 L 29.191406 0 L 29.191406 29.03125 L 0.484375 29.03125 Z M 0.484375 0 " clip-rule="nonzero"/></clipPath><clipPath id="667cec04c5"><path d="M 14.671875 0 C 6.65625 0 0.15625 6.5 0.15625 14.515625 C 0.15625 22.53125 6.65625 29.03125 14.671875 29.03125 C 22.691406 29.03125 29.191406 22.53125 29.191406 14.515625 C 29.191406 6.5 22.691406 0 14.671875 0 Z M 14.671875 0 " clip-rule="nonzero"/></clipPath><clipPath id="4d92847638"><path d="M 3.386719 12.730469 L 25.886719 12.730469 L 25.886719 17 L 3.386719 17 Z M 3.386719 12.730469 " clip-rule="nonzero"/></clipPath></defs><g clip-path="url(#8ea11b556d)"><g clip-path="url(#667cec04c5)"><path fill="#888dd8" d="M 0.15625 0 L 29.191406 0 L 29.191406 29.03125 L 0.15625 29.03125 Z M 0.15625 0 " fill-opacity="1" fill-rule="nonzero"/></g></g><g clip-path="url(#4d92847638)"><path fill="#f8f9fc" d="M 25.921875 14.839844 C 25.921875 16.003906 24.976562 16.949219 23.8125 16.949219 L 5.53125 16.949219 C 4.367188 16.949219 3.421875 16.003906 3.421875 14.839844 C 3.421875 13.671875 4.367188 12.730469 5.53125 12.730469 L 23.8125 12.730469 C 24.976562 12.730469 25.921875 13.671875 25.921875 14.839844 Z M 25.921875 14.839844 " fill-opacity="1" fill-rule="nonzero"/></g></svg>