<svg xmlns="http://www.w3.org/2000/svg" xmlns:xlink="http://www.w3.org/1999/xlink" width="40" zoomAndPan="magnify" viewBox="0 0 30 30.000001" height="40" preserveAspectRatio="xMidYMid meet" version="1.0"><defs><clipPath id="ceacd11fcb"><path d="M 0.484375 0 L 29.191406 0 L 29.191406 29.03125 L 0.484375 29.03125 Z M 0.484375 0 " clip-rule="nonzero"/></clipPath><clipPath id="38e8b9c502"><path d="M 14.671875 0 C 6.65625 0 0.15625 6.5 0.15625 14.515625 C 0.15625 22.53125 6.65625 29.03125 14.671875 29.03125 C 22.691406 29.03125 29.191406 22.53125 29.191406 14.515625 C 29.191406 6.5 22.691406 0 14.671875 0 Z M 14.671875 0 " clip-rule="nonzero"/></clipPath><clipPath id="9641ba110e"><path d="M 3.386719 12.730469 L 25.886719 12.730469 L 25.886719 17 L 3.386719 17 Z M 3.386719 12.730469 " clip-rule="nonzero"/></clipPath><clipPath id="da187b9bf1"><path d="M 2.734375 2.976562 L 26.683594 2.976562 L 26.683594 26.925781 L 2.734375 26.925781 Z M 2.734375 2.976562 " clip-rule="nonzero"/></clipPath></defs><g clip-path="url(#ceacd11fcb)"><g clip-path="url(#38e8b9c502)"><path fill="#c0c3f4" d="M 0.15625 0 L 29.191406 0 L 29.191406 29.03125 L 0.15625 29.03125 Z M 0.15625 0 " fill-opacity="1" fill-rule="nonzero"/></g></g><g clip-path="url(#9641ba110e)"><path fill="#f1f2ff" d="M 25.921875 14.839844 C 25.921875 16.003906 24.976562 16.949219 23.8125 16.949219 L 5.53125 16.949219 C 4.367188 16.949219 3.421875 16.003906 3.421875 14.839844 C 3.421875 13.671875 4.367188 12.730469 5.53125 12.730469 L 23.8125 12.730469 C 24.976562 12.730469 25.921875 13.671875 25.921875 14.839844 Z M 25.921875 14.839844 " fill-opacity="1" fill-rule="nonzero"/></g><g clip-path="url(#da187b9bf1)"><path fill="#f1f2ff" d="M 24.367188 12.675781 L 16.90625 12.675781 L 16.90625 5.214844 C 16.90625 3.976562 15.90625 2.976562 14.671875 2.976562 C 13.433594 2.976562 12.433594 3.976562 12.433594 5.214844 L 12.433594 12.675781 L 4.972656 12.675781 C 3.734375 12.675781 2.734375 13.675781 2.734375 14.910156 C 2.734375 16.148438 3.734375 17.148438 4.972656 17.148438 L 12.433594 17.148438 L 12.433594 24.609375 C 12.433594 25.847656 13.433594 26.847656 14.671875 26.847656 C 15.90625 26.847656 16.90625 25.847656 16.90625 24.609375 L 16.90625 17.148438 L 24.367188 17.148438 C 25.605469 17.148438 26.605469 16.148438 26.605469 14.910156 C 26.605469 13.675781 25.605469 12.675781 24.367188 12.675781 Z M 24.367188 12.675781 " fill-opacity="1" fill-rule="nonzero"/></g></svg>