<svg xmlns="http://www.w3.org/2000/svg" xmlns:xlink="http://www.w3.org/1999/xlink" width="40" zoomAndPan="magnify" viewBox="0 0 30 30.000001" height="40" preserveAspectRatio="xMidYMid meet" version="1.0"><defs><clipPath id="f8e4bf5e9a"><path d="M 0.484375 0 L 29.191406 0 L 29.191406 29.03125 L 0.484375 29.03125 Z M 0.484375 0 " clip-rule="nonzero"/></clipPath><clipPath id="f07f26db21"><path d="M 14.671875 0 C 6.65625 0 0.15625 6.5 0.15625 14.515625 C 0.15625 22.53125 6.65625 29.03125 14.671875 29.03125 C 22.691406 29.03125 29.191406 22.53125 29.191406 14.515625 C 29.191406 6.5 22.691406 0 14.671875 0 Z M 14.671875 0 " clip-rule="nonzero"/></clipPath><clipPath id="69871a2666"><path d="M 3.386719 3.554688 L 25.886719 3.554688 L 25.886719 26.054688 L 3.386719 26.054688 Z M 3.386719 3.554688 " clip-rule="nonzero"/></clipPath></defs><g clip-path="url(#f8e4bf5e9a)"><g clip-path="url(#f07f26db21)"><path fill="#888dd8" d="M 0.15625 0 L 29.191406 0 L 29.191406 29.03125 L 0.15625 29.03125 Z M 0.15625 0 " fill-opacity="1" fill-rule="nonzero"/></g></g><g clip-path="url(#69871a2666)"><path fill="#f8f9fc" d="M 23.839844 12.726562 L 16.785156 12.726562 L 16.785156 5.671875 C 16.785156 4.503906 15.839844 3.554688 14.671875 3.554688 C 13.503906 3.554688 12.554688 4.503906 12.554688 5.671875 L 12.554688 12.726562 L 5.503906 12.726562 C 4.335938 12.726562 3.386719 13.671875 3.386719 14.839844 C 3.386719 16.007812 4.335938 16.957031 5.503906 16.957031 L 12.554688 16.957031 L 12.554688 24.007812 C 12.554688 25.175781 13.503906 26.125 14.671875 26.125 C 15.839844 26.125 16.785156 25.175781 16.785156 24.007812 L 16.785156 16.957031 L 23.839844 16.957031 C 25.007812 16.957031 25.957031 16.007812 25.957031 14.839844 C 25.957031 13.671875 25.007812 12.726562 23.839844 12.726562 Z M 23.839844 12.726562 " fill-opacity="1" fill-rule="nonzero"/></g></svg>